<?xml version="1.0" encoding="utf-8"?>
<!-- Generator: Adobe Illustrator 19.2.0, SVG Export Plug-In . SVG Version: 6.00 Build 0)  -->
<svg version="1.1" id="Ebene_1" xmlns="http://www.w3.org/2000/svg" xmlns:xlink="http://www.w3.org/1999/xlink" x="0px" y="0px"
	 viewBox="0 0 500 423.1" style="enable-background:new 0 0 500 423.1;" xml:space="preserve">
<style type="text/css">
	.st0{fill:#FFC100;}
	.st1{fill-rule:evenodd;clip-rule:evenodd;fill:#1D1D1B;}
</style>
<polygon id="XMLID_8_" class="st0" points="423.1,288.5 500,288.5 500,365.4 423.1,365.4 423.1,423.1 0,423.1 0,346.2 423.1,346.2 
	423.1,288.5 "/>
<path id="XMLID_5_" class="st1" d="M101.7,0c80,0,117.8,35.9,117.8,94.2c0,52.4-35.9,80.4-71.3,92.2l46.4,65.7
	c9.8,12.1,19.8,24,34,24.4v11.9l-68.2,0l-60.7-94.6l-22.1,0v94.6H28.4V46.8c0-29.6-11.3-33.3-28.4-33.3V0L101.7,0L101.7,0z
	 M101.7,170.6c37.4,0,63.4-21.3,63.4-74.9c0-48.9-23.6-72.9-72.1-72.9l-15.4,0v146.6C77.7,169.5,86.4,170.6,101.7,170.6L101.7,170.6
	z"/>
<path id="XMLID_2_" class="st1" d="M340.2,0c82.4,0,117,38.6,117,98.5c0,70.1-50,98.1-127.7,98.1l-11,0v91.8h-49.3V46.8
	c0-29.1-10.7-33.3-28.4-33.3V0L340.2,0L340.2,0z M329.5,173.8c44.5,0,73.3-11.8,73.3-72.9c0-51.6-17.7-78-64.6-78h-19.7v150.5
	C318.5,173.4,323.6,173.8,329.5,173.8L329.5,173.8z"/>
</svg>
